G04*
G04 #@! TF.GenerationSoftware,Altium Limited,Altium Designer,22.3.1 (43)*
G04*
G04 Layer_Color=255*
%FSLAX25Y25*%
%MOIN*%
G70*
G04*
G04 #@! TF.SameCoordinates,BE9F1A3D-2FD5-4231-B36C-A3B311DF6078*
G04*
G04*
G04 #@! TF.FilePolarity,Positive*
G04*
G01*
G75*
%ADD18R,0.07874X0.07874*%
%ADD46C,0.07874*%
%ADD47C,0.03937*%
%ADD48C,0.02165*%
D18*
X194882Y137795D02*
D03*
X411417D02*
D03*
X627953D02*
D03*
X194882Y354331D02*
D03*
X411417D02*
D03*
X627953D02*
D03*
D46*
X80709Y137795D02*
D03*
X297244D02*
D03*
X513779D02*
D03*
X80709Y354331D02*
D03*
X297244D02*
D03*
X513779D02*
D03*
D47*
X199179Y202714D02*
D03*
X195643Y206250D02*
D03*
X206250Y195643D02*
D03*
X202714Y199179D02*
D03*
X72876D02*
D03*
X69341Y195643D02*
D03*
X79948Y206250D02*
D03*
X76412Y202714D02*
D03*
X202714Y76412D02*
D03*
X206250Y79948D02*
D03*
X195643Y69341D02*
D03*
X199179Y72876D02*
D03*
X76412D02*
D03*
X79948Y69341D02*
D03*
X69341Y79948D02*
D03*
X72876Y76412D02*
D03*
X415714Y202714D02*
D03*
X412179Y206250D02*
D03*
X422785Y195643D02*
D03*
X419250Y199179D02*
D03*
X289412D02*
D03*
X285876Y195643D02*
D03*
X296483Y206250D02*
D03*
X292947Y202714D02*
D03*
X419250Y76412D02*
D03*
X422785Y79948D02*
D03*
X412179Y69341D02*
D03*
X415714Y72876D02*
D03*
X292947D02*
D03*
X296483Y69341D02*
D03*
X285876Y79948D02*
D03*
X289412Y76412D02*
D03*
X632249Y202714D02*
D03*
X628714Y206250D02*
D03*
X639321Y195643D02*
D03*
X635785Y199179D02*
D03*
X505947D02*
D03*
X502412Y195643D02*
D03*
X513018Y206250D02*
D03*
X509483Y202714D02*
D03*
X635785Y76412D02*
D03*
X639321Y79948D02*
D03*
X628714Y69341D02*
D03*
X632249Y72876D02*
D03*
X509483D02*
D03*
X513018Y69341D02*
D03*
X502412Y79948D02*
D03*
X505947Y76412D02*
D03*
X199179Y419250D02*
D03*
X195643Y422785D02*
D03*
X206250Y412179D02*
D03*
X202714Y415714D02*
D03*
X72876D02*
D03*
X69341Y412179D02*
D03*
X79948Y422785D02*
D03*
X76412Y419250D02*
D03*
X202714Y292947D02*
D03*
X206250Y296483D02*
D03*
X195643Y285876D02*
D03*
X199179Y289412D02*
D03*
X76412D02*
D03*
X79948Y285876D02*
D03*
X69341Y296483D02*
D03*
X72876Y292947D02*
D03*
X415714Y419250D02*
D03*
X412179Y422785D02*
D03*
X422785Y412179D02*
D03*
X419250Y415714D02*
D03*
X289412D02*
D03*
X285876Y412179D02*
D03*
X296483Y422785D02*
D03*
X292947Y419250D02*
D03*
X419250Y292947D02*
D03*
X422785Y296483D02*
D03*
X412179Y285876D02*
D03*
X415714Y289412D02*
D03*
X292947D02*
D03*
X296483Y285876D02*
D03*
X285876Y296483D02*
D03*
X289412Y292947D02*
D03*
X632249Y419250D02*
D03*
X628714Y422785D02*
D03*
X639321Y412179D02*
D03*
X635785Y415714D02*
D03*
X505947D02*
D03*
X502412Y412179D02*
D03*
X513018Y422785D02*
D03*
X509483Y419250D02*
D03*
X635785Y292947D02*
D03*
X639321Y296483D02*
D03*
X628714Y285876D02*
D03*
X632249Y289412D02*
D03*
X509483D02*
D03*
X513018Y285876D02*
D03*
X502412Y296483D02*
D03*
X505947Y292947D02*
D03*
D48*
X137795Y137795D02*
D03*
X125984Y82677D02*
D03*
X137996Y87358D02*
D03*
X137795Y74803D02*
D03*
X354331Y137795D02*
D03*
X342520Y82677D02*
D03*
X354532Y87358D02*
D03*
X354331Y74803D02*
D03*
X570866Y137795D02*
D03*
X559055Y82677D02*
D03*
X571067Y87358D02*
D03*
X570866Y74803D02*
D03*
X137795Y354331D02*
D03*
X125984Y299213D02*
D03*
X137996Y303894D02*
D03*
X137795Y291339D02*
D03*
X354331Y354331D02*
D03*
X342520Y299213D02*
D03*
X354532Y303894D02*
D03*
X354331Y291339D02*
D03*
X570866Y354331D02*
D03*
X559055Y299213D02*
D03*
X571067Y303894D02*
D03*
X570866Y291339D02*
D03*
M02*
