G04*
G04 #@! TF.GenerationSoftware,Altium Limited,Altium Designer,22.3.1 (43)*
G04*
G04 Layer_Color=16711935*
%FSLAX25Y25*%
%MOIN*%
G70*
G04*
G04 #@! TF.SameCoordinates,BE9F1A3D-2FD5-4231-B36C-A3B311DF6078*
G04*
G04*
G04 #@! TF.FilePolarity,Positive*
G04*
G01*
G75*
%ADD43C,0.00787*%
%ADD51C,0.00394*%
D43*
X139513Y39385D02*
G03*
X236206Y136077I-1718J98410D01*
G01*
X39385D02*
G03*
X136077Y39385I98410J1718D01*
G01*
Y236206D02*
G03*
X39385Y139513I1718J-98410D01*
G01*
X236206D02*
G03*
X139513Y236206I-98410J-1718D01*
G01*
X356048Y39385D02*
G03*
X452741Y136077I-1718J98410D01*
G01*
X255921D02*
G03*
X352613Y39385I98410J1718D01*
G01*
Y236206D02*
G03*
X255921Y139513I1718J-98410D01*
G01*
X452741D02*
G03*
X356048Y236206I-98410J-1718D01*
G01*
X572584Y39385D02*
G03*
X669276Y136077I-1718J98410D01*
G01*
X472456D02*
G03*
X569148Y39385I98410J1718D01*
G01*
Y236206D02*
G03*
X472456Y139513I1718J-98410D01*
G01*
X669276D02*
G03*
X572584Y236206I-98410J-1718D01*
G01*
X139513Y255921D02*
G03*
X236206Y352613I-1718J98410D01*
G01*
X39385D02*
G03*
X136077Y255921I98410J1718D01*
G01*
Y452741D02*
G03*
X39385Y356048I1718J-98410D01*
G01*
X236206D02*
G03*
X139513Y452741I-98410J-1718D01*
G01*
X356048Y255921D02*
G03*
X452741Y352613I-1718J98410D01*
G01*
X255921D02*
G03*
X352613Y255921I98410J1718D01*
G01*
Y452741D02*
G03*
X255921Y356048I1718J-98410D01*
G01*
X452741D02*
G03*
X356048Y452741I-98410J-1718D01*
G01*
X572584Y255921D02*
G03*
X669276Y352613I-1718J98410D01*
G01*
X472456D02*
G03*
X569148Y255921I98410J1718D01*
G01*
Y452741D02*
G03*
X472456Y356048I1718J-98410D01*
G01*
X669276D02*
G03*
X572584Y452741I-98410J-1718D01*
G01*
D51*
X0Y0D02*
X708661D01*
X0Y492126D02*
X708661D01*
Y0D02*
Y492126D01*
X0Y0D02*
Y492126D01*
M02*
