G04*
G04 #@! TF.GenerationSoftware,Altium Limited,Altium Designer,22.3.1 (43)*
G04*
G04 Layer_Color=255*
%FSLAX25Y25*%
%MOIN*%
G70*
G04*
G04 #@! TF.SameCoordinates,BE9F1A3D-2FD5-4231-B36C-A3B311DF6078*
G04*
G04*
G04 #@! TF.FilePolarity,Positive*
G04*
G01*
G75*
%ADD11R,0.12598X0.12598*%
%ADD12R,0.01203X0.03387*%
%ADD13R,0.03387X0.01203*%
%ADD14R,0.12598X0.12598*%
G04:AMPARAMS|DCode=15|XSize=35.43mil|YSize=10.24mil|CornerRadius=1.28mil|HoleSize=0mil|Usage=FLASHONLY|Rotation=0.000|XOffset=0mil|YOffset=0mil|HoleType=Round|Shape=RoundedRectangle|*
%AMROUNDEDRECTD15*
21,1,0.03543,0.00768,0,0,0.0*
21,1,0.03287,0.01024,0,0,0.0*
1,1,0.00256,0.01644,-0.00384*
1,1,0.00256,-0.01644,-0.00384*
1,1,0.00256,-0.01644,0.00384*
1,1,0.00256,0.01644,0.00384*
%
%ADD15ROUNDEDRECTD15*%
G04:AMPARAMS|DCode=16|XSize=35.43mil|YSize=10.24mil|CornerRadius=1.28mil|HoleSize=0mil|Usage=FLASHONLY|Rotation=270.000|XOffset=0mil|YOffset=0mil|HoleType=Round|Shape=RoundedRectangle|*
%AMROUNDEDRECTD16*
21,1,0.03543,0.00768,0,0,270.0*
21,1,0.03287,0.01024,0,0,270.0*
1,1,0.00256,-0.00384,-0.01644*
1,1,0.00256,-0.00384,0.01644*
1,1,0.00256,0.00384,0.01644*
1,1,0.00256,0.00384,-0.01644*
%
%ADD16ROUNDEDRECTD16*%
%ADD17R,0.07874X0.07874*%
%ADD18R,0.07874X0.07874*%
%ADD19R,0.02992X0.09449*%
G04:AMPARAMS|DCode=20|XSize=23.62mil|YSize=11.81mil|CornerRadius=2.95mil|HoleSize=0mil|Usage=FLASHONLY|Rotation=270.000|XOffset=0mil|YOffset=0mil|HoleType=Round|Shape=RoundedRectangle|*
%AMROUNDEDRECTD20*
21,1,0.02362,0.00591,0,0,270.0*
21,1,0.01772,0.01181,0,0,270.0*
1,1,0.00591,-0.00295,-0.00886*
1,1,0.00591,-0.00295,0.00886*
1,1,0.00591,0.00295,0.00886*
1,1,0.00591,0.00295,-0.00886*
%
%ADD20ROUNDEDRECTD20*%
%ADD21R,0.03386X0.01968*%
%ADD22R,0.01575X0.01575*%
%ADD23R,0.01968X0.01968*%
%ADD24R,0.04724X0.05906*%
%ADD25R,0.04724X0.06299*%
%ADD26R,0.05906X0.03347*%
%ADD27R,0.00984X0.02953*%
%ADD28C,0.00787*%
%ADD29R,0.02362X0.02165*%
%ADD30R,0.02165X0.02362*%
%ADD31R,0.02362X0.01968*%
%ADD32R,0.01968X0.02362*%
%ADD33R,0.02953X0.03150*%
%ADD34R,0.03200X0.03000*%
%ADD35R,0.02559X0.04134*%
G04:AMPARAMS|DCode=36|XSize=55.12mil|YSize=59.06mil|CornerRadius=13.78mil|HoleSize=0mil|Usage=FLASHONLY|Rotation=225.000|XOffset=0mil|YOffset=0mil|HoleType=Round|Shape=RoundedRectangle|*
%AMROUNDEDRECTD36*
21,1,0.05512,0.03150,0,0,225.0*
21,1,0.02756,0.05906,0,0,225.0*
1,1,0.02756,-0.02088,0.00139*
1,1,0.02756,-0.00139,0.02088*
1,1,0.02756,0.02088,-0.00139*
1,1,0.02756,0.00139,-0.02088*
%
%ADD36ROUNDEDRECTD36*%
G04:AMPARAMS|DCode=37|XSize=59.06mil|YSize=78.74mil|CornerRadius=14.76mil|HoleSize=0mil|Usage=FLASHONLY|Rotation=225.000|XOffset=0mil|YOffset=0mil|HoleType=Round|Shape=RoundedRectangle|*
%AMROUNDEDRECTD37*
21,1,0.05906,0.04921,0,0,225.0*
21,1,0.02953,0.07874,0,0,225.0*
1,1,0.02953,-0.02784,0.00696*
1,1,0.02953,-0.00696,0.02784*
1,1,0.02953,0.02784,-0.00696*
1,1,0.02953,0.00696,-0.02784*
%
%ADD37ROUNDEDRECTD37*%
G04:AMPARAMS|DCode=38|XSize=55.12mil|YSize=59.06mil|CornerRadius=13.78mil|HoleSize=0mil|Usage=FLASHONLY|Rotation=315.000|XOffset=0mil|YOffset=0mil|HoleType=Round|Shape=RoundedRectangle|*
%AMROUNDEDRECTD38*
21,1,0.05512,0.03150,0,0,315.0*
21,1,0.02756,0.05906,0,0,315.0*
1,1,0.02756,-0.00139,-0.02088*
1,1,0.02756,-0.02088,-0.00139*
1,1,0.02756,0.00139,0.02088*
1,1,0.02756,0.02088,0.00139*
%
%ADD38ROUNDEDRECTD38*%
G04:AMPARAMS|DCode=39|XSize=59.06mil|YSize=78.74mil|CornerRadius=14.76mil|HoleSize=0mil|Usage=FLASHONLY|Rotation=315.000|XOffset=0mil|YOffset=0mil|HoleType=Round|Shape=RoundedRectangle|*
%AMROUNDEDRECTD39*
21,1,0.05906,0.04921,0,0,315.0*
21,1,0.02953,0.07874,0,0,315.0*
1,1,0.02953,-0.00696,-0.02784*
1,1,0.02953,-0.02784,-0.00696*
1,1,0.02953,0.00696,0.02784*
1,1,0.02953,0.02784,0.00696*
%
%ADD39ROUNDEDRECTD39*%
%ADD46C,0.07874*%
%ADD47C,0.03937*%
%ADD48C,0.02165*%
D11*
X84646Y185039D02*
D03*
X190945Y90551D02*
D03*
X301181Y185039D02*
D03*
X407480Y90551D02*
D03*
X517717Y185039D02*
D03*
X624016Y90551D02*
D03*
X84646Y401575D02*
D03*
X190945Y307087D02*
D03*
X301181Y401575D02*
D03*
X407480Y307087D02*
D03*
X517717Y401575D02*
D03*
X624016Y307087D02*
D03*
D12*
X89764Y176096D02*
D03*
X87205D02*
D03*
X84646D02*
D03*
X82087D02*
D03*
X79528D02*
D03*
Y193983D02*
D03*
X82087D02*
D03*
X84646D02*
D03*
X87205D02*
D03*
X89764D02*
D03*
X196063Y176096D02*
D03*
X193504D02*
D03*
X190945D02*
D03*
X188386D02*
D03*
X185827D02*
D03*
Y193983D02*
D03*
X188386D02*
D03*
X190945D02*
D03*
X193504D02*
D03*
X196063D02*
D03*
X79528Y99495D02*
D03*
X82087D02*
D03*
X84646D02*
D03*
X87205D02*
D03*
X89764D02*
D03*
Y81608D02*
D03*
X87205D02*
D03*
X84646D02*
D03*
X82087D02*
D03*
X79528D02*
D03*
X185827Y99495D02*
D03*
X188386D02*
D03*
X190945D02*
D03*
X193504D02*
D03*
X196063D02*
D03*
Y81608D02*
D03*
X193504D02*
D03*
X190945D02*
D03*
X188386D02*
D03*
X185827D02*
D03*
X306299Y176096D02*
D03*
X303740D02*
D03*
X301181D02*
D03*
X298622D02*
D03*
X296063D02*
D03*
Y193983D02*
D03*
X298622D02*
D03*
X301181D02*
D03*
X303740D02*
D03*
X306299D02*
D03*
X412598Y176096D02*
D03*
X410039D02*
D03*
X407480D02*
D03*
X404921D02*
D03*
X402362D02*
D03*
Y193983D02*
D03*
X404921D02*
D03*
X407480D02*
D03*
X410039D02*
D03*
X412598D02*
D03*
X296063Y99495D02*
D03*
X298622D02*
D03*
X301181D02*
D03*
X303740D02*
D03*
X306299D02*
D03*
Y81608D02*
D03*
X303740D02*
D03*
X301181D02*
D03*
X298622D02*
D03*
X296063D02*
D03*
X402362Y99495D02*
D03*
X404921D02*
D03*
X407480D02*
D03*
X410039D02*
D03*
X412598D02*
D03*
Y81608D02*
D03*
X410039D02*
D03*
X407480D02*
D03*
X404921D02*
D03*
X402362D02*
D03*
X522835Y176096D02*
D03*
X520276D02*
D03*
X517717D02*
D03*
X515158D02*
D03*
X512598D02*
D03*
Y193983D02*
D03*
X515158D02*
D03*
X517717D02*
D03*
X520276D02*
D03*
X522835D02*
D03*
X629134Y176096D02*
D03*
X626575D02*
D03*
X624016D02*
D03*
X621457D02*
D03*
X618898D02*
D03*
Y193983D02*
D03*
X621457D02*
D03*
X624016D02*
D03*
X626575D02*
D03*
X629134D02*
D03*
X512598Y99495D02*
D03*
X515158D02*
D03*
X517717D02*
D03*
X520276D02*
D03*
X522835D02*
D03*
Y81608D02*
D03*
X520276D02*
D03*
X517717D02*
D03*
X515158D02*
D03*
X512598D02*
D03*
X618898Y99495D02*
D03*
X621457D02*
D03*
X624016D02*
D03*
X626575D02*
D03*
X629134D02*
D03*
Y81608D02*
D03*
X626575D02*
D03*
X624016D02*
D03*
X621457D02*
D03*
X618898D02*
D03*
X89764Y392631D02*
D03*
X87205D02*
D03*
X84646D02*
D03*
X82087D02*
D03*
X79528D02*
D03*
Y410519D02*
D03*
X82087D02*
D03*
X84646D02*
D03*
X87205D02*
D03*
X89764D02*
D03*
X196063Y392631D02*
D03*
X193504D02*
D03*
X190945D02*
D03*
X188386D02*
D03*
X185827D02*
D03*
Y410519D02*
D03*
X188386D02*
D03*
X190945D02*
D03*
X193504D02*
D03*
X196063D02*
D03*
X79528Y316030D02*
D03*
X82087D02*
D03*
X84646D02*
D03*
X87205D02*
D03*
X89764D02*
D03*
Y298143D02*
D03*
X87205D02*
D03*
X84646D02*
D03*
X82087D02*
D03*
X79528D02*
D03*
X185827Y316030D02*
D03*
X188386D02*
D03*
X190945D02*
D03*
X193504D02*
D03*
X196063D02*
D03*
Y298143D02*
D03*
X193504D02*
D03*
X190945D02*
D03*
X188386D02*
D03*
X185827D02*
D03*
X306299Y392631D02*
D03*
X303740D02*
D03*
X301181D02*
D03*
X298622D02*
D03*
X296063D02*
D03*
Y410519D02*
D03*
X298622D02*
D03*
X301181D02*
D03*
X303740D02*
D03*
X306299D02*
D03*
X412598Y392631D02*
D03*
X410039D02*
D03*
X407480D02*
D03*
X404921D02*
D03*
X402362D02*
D03*
Y410519D02*
D03*
X404921D02*
D03*
X407480D02*
D03*
X410039D02*
D03*
X412598D02*
D03*
X296063Y316030D02*
D03*
X298622D02*
D03*
X301181D02*
D03*
X303740D02*
D03*
X306299D02*
D03*
Y298143D02*
D03*
X303740D02*
D03*
X301181D02*
D03*
X298622D02*
D03*
X296063D02*
D03*
X402362Y316030D02*
D03*
X404921D02*
D03*
X407480D02*
D03*
X410039D02*
D03*
X412598D02*
D03*
Y298143D02*
D03*
X410039D02*
D03*
X407480D02*
D03*
X404921D02*
D03*
X402362D02*
D03*
X522835Y392631D02*
D03*
X520276D02*
D03*
X517717D02*
D03*
X515158D02*
D03*
X512598D02*
D03*
Y410519D02*
D03*
X515158D02*
D03*
X517717D02*
D03*
X520276D02*
D03*
X522835D02*
D03*
X629134Y392631D02*
D03*
X626575D02*
D03*
X624016D02*
D03*
X621457D02*
D03*
X618898D02*
D03*
Y410519D02*
D03*
X621457D02*
D03*
X624016D02*
D03*
X626575D02*
D03*
X629134D02*
D03*
X512598Y316030D02*
D03*
X515158D02*
D03*
X517717D02*
D03*
X520276D02*
D03*
X522835D02*
D03*
Y298143D02*
D03*
X520276D02*
D03*
X517717D02*
D03*
X515158D02*
D03*
X512598D02*
D03*
X618898Y316030D02*
D03*
X621457D02*
D03*
X624016D02*
D03*
X626575D02*
D03*
X629134D02*
D03*
Y298143D02*
D03*
X626575D02*
D03*
X624016D02*
D03*
X621457D02*
D03*
X618898D02*
D03*
D13*
X75702Y179921D02*
D03*
Y182480D02*
D03*
Y185039D02*
D03*
Y187598D02*
D03*
Y190157D02*
D03*
X93589D02*
D03*
Y187598D02*
D03*
Y185039D02*
D03*
Y182480D02*
D03*
Y179921D02*
D03*
X199889Y190157D02*
D03*
Y187598D02*
D03*
Y185039D02*
D03*
Y182480D02*
D03*
Y179921D02*
D03*
X182001D02*
D03*
Y182480D02*
D03*
Y185039D02*
D03*
Y187598D02*
D03*
Y190157D02*
D03*
X75702Y85433D02*
D03*
Y87992D02*
D03*
Y90551D02*
D03*
Y93110D02*
D03*
Y95669D02*
D03*
X93589D02*
D03*
Y93110D02*
D03*
Y90551D02*
D03*
Y87992D02*
D03*
Y85433D02*
D03*
X199889Y95669D02*
D03*
Y93110D02*
D03*
Y90551D02*
D03*
Y87992D02*
D03*
Y85433D02*
D03*
X182001D02*
D03*
Y87992D02*
D03*
Y90551D02*
D03*
Y93110D02*
D03*
Y95669D02*
D03*
X292237Y179921D02*
D03*
Y182480D02*
D03*
Y185039D02*
D03*
Y187598D02*
D03*
Y190157D02*
D03*
X310125D02*
D03*
Y187598D02*
D03*
Y185039D02*
D03*
Y182480D02*
D03*
Y179921D02*
D03*
X416424Y190157D02*
D03*
Y187598D02*
D03*
Y185039D02*
D03*
Y182480D02*
D03*
Y179921D02*
D03*
X398537D02*
D03*
Y182480D02*
D03*
Y185039D02*
D03*
Y187598D02*
D03*
Y190157D02*
D03*
X292237Y85433D02*
D03*
Y87992D02*
D03*
Y90551D02*
D03*
Y93110D02*
D03*
Y95669D02*
D03*
X310125D02*
D03*
Y93110D02*
D03*
Y90551D02*
D03*
Y87992D02*
D03*
Y85433D02*
D03*
X416424Y95669D02*
D03*
Y93110D02*
D03*
Y90551D02*
D03*
Y87992D02*
D03*
Y85433D02*
D03*
X398537D02*
D03*
Y87992D02*
D03*
Y90551D02*
D03*
Y93110D02*
D03*
Y95669D02*
D03*
X508773Y179921D02*
D03*
Y182480D02*
D03*
Y185039D02*
D03*
Y187598D02*
D03*
Y190157D02*
D03*
X526660D02*
D03*
Y187598D02*
D03*
Y185039D02*
D03*
Y182480D02*
D03*
Y179921D02*
D03*
X632960Y190157D02*
D03*
Y187598D02*
D03*
Y185039D02*
D03*
Y182480D02*
D03*
Y179921D02*
D03*
X615072D02*
D03*
Y182480D02*
D03*
Y185039D02*
D03*
Y187598D02*
D03*
Y190157D02*
D03*
X508773Y85433D02*
D03*
Y87992D02*
D03*
Y90551D02*
D03*
Y93110D02*
D03*
Y95669D02*
D03*
X526660D02*
D03*
Y93110D02*
D03*
Y90551D02*
D03*
Y87992D02*
D03*
Y85433D02*
D03*
X632960Y95669D02*
D03*
Y93110D02*
D03*
Y90551D02*
D03*
Y87992D02*
D03*
Y85433D02*
D03*
X615072D02*
D03*
Y87992D02*
D03*
Y90551D02*
D03*
Y93110D02*
D03*
Y95669D02*
D03*
X75702Y396457D02*
D03*
Y399016D02*
D03*
Y401575D02*
D03*
Y404134D02*
D03*
Y406693D02*
D03*
X93589D02*
D03*
Y404134D02*
D03*
Y401575D02*
D03*
Y399016D02*
D03*
Y396457D02*
D03*
X199889Y406693D02*
D03*
Y404134D02*
D03*
Y401575D02*
D03*
Y399016D02*
D03*
Y396457D02*
D03*
X182001D02*
D03*
Y399016D02*
D03*
Y401575D02*
D03*
Y404134D02*
D03*
Y406693D02*
D03*
X75702Y301969D02*
D03*
Y304528D02*
D03*
Y307087D02*
D03*
Y309646D02*
D03*
Y312205D02*
D03*
X93589D02*
D03*
Y309646D02*
D03*
Y307087D02*
D03*
Y304528D02*
D03*
Y301969D02*
D03*
X199889Y312205D02*
D03*
Y309646D02*
D03*
Y307087D02*
D03*
Y304528D02*
D03*
Y301969D02*
D03*
X182001D02*
D03*
Y304528D02*
D03*
Y307087D02*
D03*
Y309646D02*
D03*
Y312205D02*
D03*
X292237Y396457D02*
D03*
Y399016D02*
D03*
Y401575D02*
D03*
Y404134D02*
D03*
Y406693D02*
D03*
X310125D02*
D03*
Y404134D02*
D03*
Y401575D02*
D03*
Y399016D02*
D03*
Y396457D02*
D03*
X416424Y406693D02*
D03*
Y404134D02*
D03*
Y401575D02*
D03*
Y399016D02*
D03*
Y396457D02*
D03*
X398537D02*
D03*
Y399016D02*
D03*
Y401575D02*
D03*
Y404134D02*
D03*
Y406693D02*
D03*
X292237Y301969D02*
D03*
Y304528D02*
D03*
Y307087D02*
D03*
Y309646D02*
D03*
Y312205D02*
D03*
X310125D02*
D03*
Y309646D02*
D03*
Y307087D02*
D03*
Y304528D02*
D03*
Y301969D02*
D03*
X416424Y312205D02*
D03*
Y309646D02*
D03*
Y307087D02*
D03*
Y304528D02*
D03*
Y301969D02*
D03*
X398537D02*
D03*
Y304528D02*
D03*
Y307087D02*
D03*
Y309646D02*
D03*
Y312205D02*
D03*
X508773Y396457D02*
D03*
Y399016D02*
D03*
Y401575D02*
D03*
Y404134D02*
D03*
Y406693D02*
D03*
X526660D02*
D03*
Y404134D02*
D03*
Y401575D02*
D03*
Y399016D02*
D03*
Y396457D02*
D03*
X632960Y406693D02*
D03*
Y404134D02*
D03*
Y401575D02*
D03*
Y399016D02*
D03*
Y396457D02*
D03*
X615072D02*
D03*
Y399016D02*
D03*
Y401575D02*
D03*
Y404134D02*
D03*
Y406693D02*
D03*
X508773Y301969D02*
D03*
Y304528D02*
D03*
Y307087D02*
D03*
Y309646D02*
D03*
Y312205D02*
D03*
X526660D02*
D03*
Y309646D02*
D03*
Y307087D02*
D03*
Y304528D02*
D03*
Y301969D02*
D03*
X632960Y312205D02*
D03*
Y309646D02*
D03*
Y307087D02*
D03*
Y304528D02*
D03*
Y301969D02*
D03*
X615072D02*
D03*
Y304528D02*
D03*
Y307087D02*
D03*
Y309646D02*
D03*
Y312205D02*
D03*
D14*
X190945Y185039D02*
D03*
X84646Y90551D02*
D03*
X407480Y185039D02*
D03*
X301181Y90551D02*
D03*
X624016Y185039D02*
D03*
X517717Y90551D02*
D03*
X190945Y401575D02*
D03*
X84646Y307087D02*
D03*
X407480Y401575D02*
D03*
X301181Y307087D02*
D03*
X624016Y401575D02*
D03*
X517717Y307087D02*
D03*
D15*
X211870Y163386D02*
D03*
Y161417D02*
D03*
Y159449D02*
D03*
Y157480D02*
D03*
Y155512D02*
D03*
X225138D02*
D03*
Y157480D02*
D03*
Y159449D02*
D03*
Y161417D02*
D03*
Y163386D02*
D03*
X50453Y162402D02*
D03*
Y156496D02*
D03*
X63721D02*
D03*
Y162402D02*
D03*
X50453Y119095D02*
D03*
Y113189D02*
D03*
X63721D02*
D03*
Y119095D02*
D03*
X211870Y120079D02*
D03*
Y118110D02*
D03*
Y116142D02*
D03*
Y114173D02*
D03*
Y112205D02*
D03*
X225138D02*
D03*
Y114173D02*
D03*
Y116142D02*
D03*
Y118110D02*
D03*
Y120079D02*
D03*
X428406Y163386D02*
D03*
Y161417D02*
D03*
Y159449D02*
D03*
Y157480D02*
D03*
Y155512D02*
D03*
X441673D02*
D03*
Y157480D02*
D03*
Y159449D02*
D03*
Y161417D02*
D03*
Y163386D02*
D03*
X266988Y162402D02*
D03*
Y156496D02*
D03*
X280256D02*
D03*
Y162402D02*
D03*
X266988Y119095D02*
D03*
Y113189D02*
D03*
X280256D02*
D03*
Y119095D02*
D03*
X428406Y120079D02*
D03*
Y118110D02*
D03*
Y116142D02*
D03*
Y114173D02*
D03*
Y112205D02*
D03*
X441673D02*
D03*
Y114173D02*
D03*
Y116142D02*
D03*
Y118110D02*
D03*
Y120079D02*
D03*
X644941Y163386D02*
D03*
Y161417D02*
D03*
Y159449D02*
D03*
Y157480D02*
D03*
Y155512D02*
D03*
X658209D02*
D03*
Y157480D02*
D03*
Y159449D02*
D03*
Y161417D02*
D03*
Y163386D02*
D03*
X483524Y162402D02*
D03*
Y156496D02*
D03*
X496791D02*
D03*
Y162402D02*
D03*
X483524Y119095D02*
D03*
Y113189D02*
D03*
X496791D02*
D03*
Y119095D02*
D03*
X644941Y120079D02*
D03*
Y118110D02*
D03*
Y116142D02*
D03*
Y114173D02*
D03*
Y112205D02*
D03*
X658209D02*
D03*
Y114173D02*
D03*
Y116142D02*
D03*
Y118110D02*
D03*
Y120079D02*
D03*
X211870Y379921D02*
D03*
Y377953D02*
D03*
Y375984D02*
D03*
Y374016D02*
D03*
Y372047D02*
D03*
X225138D02*
D03*
Y374016D02*
D03*
Y375984D02*
D03*
Y377953D02*
D03*
Y379921D02*
D03*
X50453Y378937D02*
D03*
Y373031D02*
D03*
X63721D02*
D03*
Y378937D02*
D03*
X50453Y335630D02*
D03*
Y329724D02*
D03*
X63721D02*
D03*
Y335630D02*
D03*
X211870Y336614D02*
D03*
Y334646D02*
D03*
Y332677D02*
D03*
Y330709D02*
D03*
Y328740D02*
D03*
X225138D02*
D03*
Y330709D02*
D03*
Y332677D02*
D03*
Y334646D02*
D03*
Y336614D02*
D03*
X428406Y379921D02*
D03*
Y377953D02*
D03*
Y375984D02*
D03*
Y374016D02*
D03*
Y372047D02*
D03*
X441673D02*
D03*
Y374016D02*
D03*
Y375984D02*
D03*
Y377953D02*
D03*
Y379921D02*
D03*
X266988Y378937D02*
D03*
Y373031D02*
D03*
X280256D02*
D03*
Y378937D02*
D03*
X266988Y335630D02*
D03*
Y329724D02*
D03*
X280256D02*
D03*
Y335630D02*
D03*
X428406Y336614D02*
D03*
Y334646D02*
D03*
Y332677D02*
D03*
Y330709D02*
D03*
Y328740D02*
D03*
X441673D02*
D03*
Y330709D02*
D03*
Y332677D02*
D03*
Y334646D02*
D03*
Y336614D02*
D03*
X644941Y379921D02*
D03*
Y377953D02*
D03*
Y375984D02*
D03*
Y374016D02*
D03*
Y372047D02*
D03*
X658209D02*
D03*
Y374016D02*
D03*
Y375984D02*
D03*
Y377953D02*
D03*
Y379921D02*
D03*
X483524Y378937D02*
D03*
Y373031D02*
D03*
X496791D02*
D03*
Y378937D02*
D03*
X483524Y335630D02*
D03*
Y329724D02*
D03*
X496791D02*
D03*
Y335630D02*
D03*
X644941Y336614D02*
D03*
Y334646D02*
D03*
Y332677D02*
D03*
Y330709D02*
D03*
Y328740D02*
D03*
X658209D02*
D03*
Y330709D02*
D03*
Y332677D02*
D03*
Y334646D02*
D03*
Y336614D02*
D03*
D16*
X221457Y166083D02*
D03*
X215551D02*
D03*
Y152815D02*
D03*
X221457D02*
D03*
X53150D02*
D03*
X55118D02*
D03*
X57087D02*
D03*
X59055D02*
D03*
X61024D02*
D03*
Y166083D02*
D03*
X59055D02*
D03*
X57087D02*
D03*
X55118D02*
D03*
X53150D02*
D03*
Y109508D02*
D03*
X55118D02*
D03*
X57087D02*
D03*
X59055D02*
D03*
X61024D02*
D03*
Y122776D02*
D03*
X59055D02*
D03*
X57087D02*
D03*
X55118D02*
D03*
X53150D02*
D03*
X221457D02*
D03*
X215551D02*
D03*
Y109508D02*
D03*
X221457D02*
D03*
X437992Y166083D02*
D03*
X432087D02*
D03*
Y152815D02*
D03*
X437992D02*
D03*
X269685D02*
D03*
X271654D02*
D03*
X273622D02*
D03*
X275591D02*
D03*
X277559D02*
D03*
Y166083D02*
D03*
X275591D02*
D03*
X273622D02*
D03*
X271654D02*
D03*
X269685D02*
D03*
Y109508D02*
D03*
X271654D02*
D03*
X273622D02*
D03*
X275591D02*
D03*
X277559D02*
D03*
Y122776D02*
D03*
X275591D02*
D03*
X273622D02*
D03*
X271654D02*
D03*
X269685D02*
D03*
X437992D02*
D03*
X432087D02*
D03*
Y109508D02*
D03*
X437992D02*
D03*
X654528Y166083D02*
D03*
X648622D02*
D03*
Y152815D02*
D03*
X654528D02*
D03*
X486221D02*
D03*
X488189D02*
D03*
X490158D02*
D03*
X492126D02*
D03*
X494095D02*
D03*
Y166083D02*
D03*
X492126D02*
D03*
X490158D02*
D03*
X488189D02*
D03*
X486221D02*
D03*
Y109508D02*
D03*
X488189D02*
D03*
X490158D02*
D03*
X492126D02*
D03*
X494095D02*
D03*
Y122776D02*
D03*
X492126D02*
D03*
X490158D02*
D03*
X488189D02*
D03*
X486221D02*
D03*
X654528D02*
D03*
X648622D02*
D03*
Y109508D02*
D03*
X654528D02*
D03*
X221457Y382618D02*
D03*
X215551D02*
D03*
Y369350D02*
D03*
X221457D02*
D03*
X53150D02*
D03*
X55118D02*
D03*
X57087D02*
D03*
X59055D02*
D03*
X61024D02*
D03*
Y382618D02*
D03*
X59055D02*
D03*
X57087D02*
D03*
X55118D02*
D03*
X53150D02*
D03*
Y326043D02*
D03*
X55118D02*
D03*
X57087D02*
D03*
X59055D02*
D03*
X61024D02*
D03*
Y339311D02*
D03*
X59055D02*
D03*
X57087D02*
D03*
X55118D02*
D03*
X53150D02*
D03*
X221457D02*
D03*
X215551D02*
D03*
Y326043D02*
D03*
X221457D02*
D03*
X437992Y382618D02*
D03*
X432087D02*
D03*
Y369350D02*
D03*
X437992D02*
D03*
X269685D02*
D03*
X271654D02*
D03*
X273622D02*
D03*
X275591D02*
D03*
X277559D02*
D03*
Y382618D02*
D03*
X275591D02*
D03*
X273622D02*
D03*
X271654D02*
D03*
X269685D02*
D03*
Y326043D02*
D03*
X271654D02*
D03*
X273622D02*
D03*
X275591D02*
D03*
X277559D02*
D03*
Y339311D02*
D03*
X275591D02*
D03*
X273622D02*
D03*
X271654D02*
D03*
X269685D02*
D03*
X437992D02*
D03*
X432087D02*
D03*
Y326043D02*
D03*
X437992D02*
D03*
X654528Y382618D02*
D03*
X648622D02*
D03*
Y369350D02*
D03*
X654528D02*
D03*
X486221D02*
D03*
X488189D02*
D03*
X490158D02*
D03*
X492126D02*
D03*
X494095D02*
D03*
Y382618D02*
D03*
X492126D02*
D03*
X490158D02*
D03*
X488189D02*
D03*
X486221D02*
D03*
Y326043D02*
D03*
X488189D02*
D03*
X490158D02*
D03*
X492126D02*
D03*
X494095D02*
D03*
Y339311D02*
D03*
X492126D02*
D03*
X490158D02*
D03*
X488189D02*
D03*
X486221D02*
D03*
X654528D02*
D03*
X648622D02*
D03*
Y326043D02*
D03*
X654528D02*
D03*
D17*
X218504Y159449D02*
D03*
Y116142D02*
D03*
X435039Y159449D02*
D03*
Y116142D02*
D03*
X651575Y159449D02*
D03*
Y116142D02*
D03*
X218504Y375984D02*
D03*
Y332677D02*
D03*
X435039Y375984D02*
D03*
Y332677D02*
D03*
X651575Y375984D02*
D03*
Y332677D02*
D03*
D18*
X57087Y159449D02*
D03*
Y116142D02*
D03*
X273622Y159449D02*
D03*
Y116142D02*
D03*
X490158Y159449D02*
D03*
Y116142D02*
D03*
X57087Y375984D02*
D03*
Y332677D02*
D03*
X273622Y375984D02*
D03*
Y332677D02*
D03*
X490158Y375984D02*
D03*
Y332677D02*
D03*
X194882Y137795D02*
D03*
X411417D02*
D03*
X627953D02*
D03*
X194882Y354331D02*
D03*
X411417D02*
D03*
X627953D02*
D03*
D19*
X127795Y175787D02*
D03*
X132795D02*
D03*
X127795Y191142D02*
D03*
X132795D02*
D03*
X137795Y175787D02*
D03*
X142795D02*
D03*
X147795D02*
D03*
X137795Y191142D02*
D03*
X142795D02*
D03*
X147795D02*
D03*
X344331Y175787D02*
D03*
X349331D02*
D03*
X344331Y191142D02*
D03*
X349331D02*
D03*
X354331Y175787D02*
D03*
X359331D02*
D03*
X364331D02*
D03*
X354331Y191142D02*
D03*
X359331D02*
D03*
X364331D02*
D03*
X560866Y175787D02*
D03*
X565866D02*
D03*
X560866Y191142D02*
D03*
X565866D02*
D03*
X570866Y175787D02*
D03*
X575866D02*
D03*
X580866D02*
D03*
X570866Y191142D02*
D03*
X575866D02*
D03*
X580866D02*
D03*
X127795Y392323D02*
D03*
X132795D02*
D03*
X127795Y407677D02*
D03*
X132795D02*
D03*
X137795Y392323D02*
D03*
X142795D02*
D03*
X147795D02*
D03*
X137795Y407677D02*
D03*
X142795D02*
D03*
X147795D02*
D03*
X344331Y392323D02*
D03*
X349331D02*
D03*
X344331Y407677D02*
D03*
X349331D02*
D03*
X354331Y392323D02*
D03*
X359331D02*
D03*
X364331D02*
D03*
X354331Y407677D02*
D03*
X359331D02*
D03*
X364331D02*
D03*
X560866Y392323D02*
D03*
X565866D02*
D03*
X560866Y407677D02*
D03*
X565866D02*
D03*
X570866Y392323D02*
D03*
X575866D02*
D03*
X580866D02*
D03*
X570866Y407677D02*
D03*
X575866D02*
D03*
X580866D02*
D03*
D20*
X107283Y191831D02*
D03*
X105315D02*
D03*
X107283Y186122D02*
D03*
X105315D02*
D03*
X168307D02*
D03*
X170276D02*
D03*
X168307Y191831D02*
D03*
X170276D02*
D03*
X107283Y89468D02*
D03*
X105315D02*
D03*
X107283Y83760D02*
D03*
X105315D02*
D03*
X168307D02*
D03*
X170276D02*
D03*
X168307Y89468D02*
D03*
X170276D02*
D03*
X323819Y191831D02*
D03*
X321850D02*
D03*
X323819Y186122D02*
D03*
X321850D02*
D03*
X384842D02*
D03*
X386811D02*
D03*
X384842Y191831D02*
D03*
X386811D02*
D03*
X323819Y89468D02*
D03*
X321850D02*
D03*
X323819Y83760D02*
D03*
X321850D02*
D03*
X384842D02*
D03*
X386811D02*
D03*
X384842Y89468D02*
D03*
X386811D02*
D03*
X540354Y191831D02*
D03*
X538386D02*
D03*
X540354Y186122D02*
D03*
X538386D02*
D03*
X601378D02*
D03*
X603346D02*
D03*
X601378Y191831D02*
D03*
X603346D02*
D03*
X540354Y89468D02*
D03*
X538386D02*
D03*
X540354Y83760D02*
D03*
X538386D02*
D03*
X601378D02*
D03*
X603346D02*
D03*
X601378Y89468D02*
D03*
X603346D02*
D03*
X107283Y408366D02*
D03*
X105315D02*
D03*
X107283Y402658D02*
D03*
X105315D02*
D03*
X168307D02*
D03*
X170276D02*
D03*
X168307Y408366D02*
D03*
X170276D02*
D03*
X107283Y306004D02*
D03*
X105315D02*
D03*
X107283Y300295D02*
D03*
X105315D02*
D03*
X168307D02*
D03*
X170276D02*
D03*
X168307Y306004D02*
D03*
X170276D02*
D03*
X323819Y408366D02*
D03*
X321850D02*
D03*
X323819Y402658D02*
D03*
X321850D02*
D03*
X384842D02*
D03*
X386811D02*
D03*
X384842Y408366D02*
D03*
X386811D02*
D03*
X323819Y306004D02*
D03*
X321850D02*
D03*
X323819Y300295D02*
D03*
X321850D02*
D03*
X384842D02*
D03*
X386811D02*
D03*
X384842Y306004D02*
D03*
X386811D02*
D03*
X540354Y408366D02*
D03*
X538386D02*
D03*
X540354Y402658D02*
D03*
X538386D02*
D03*
X601378D02*
D03*
X603346D02*
D03*
X601378Y408366D02*
D03*
X603346D02*
D03*
X540354Y306004D02*
D03*
X538386D02*
D03*
X540354Y300295D02*
D03*
X538386D02*
D03*
X601378D02*
D03*
X603346D02*
D03*
X601378Y306004D02*
D03*
X603346D02*
D03*
D21*
X106299Y188976D02*
D03*
X169291D02*
D03*
X106299Y86614D02*
D03*
X169291D02*
D03*
X322835Y188976D02*
D03*
X385827D02*
D03*
X322835Y86614D02*
D03*
X385827D02*
D03*
X539370Y188976D02*
D03*
X602362D02*
D03*
X539370Y86614D02*
D03*
X602362D02*
D03*
X106299Y405512D02*
D03*
X169291D02*
D03*
X106299Y303150D02*
D03*
X169291D02*
D03*
X322835Y405512D02*
D03*
X385827D02*
D03*
X322835Y303150D02*
D03*
X385827D02*
D03*
X539370Y405512D02*
D03*
X602362D02*
D03*
X539370Y303150D02*
D03*
X602362D02*
D03*
D22*
X148622Y222589D02*
D03*
Y231644D02*
D03*
Y227116D02*
D03*
X126969Y227116D02*
D03*
Y231644D02*
D03*
Y222589D02*
D03*
X130118Y214222D02*
D03*
Y211663D02*
D03*
Y209104D02*
D03*
Y206545D02*
D03*
Y203986D02*
D03*
X132677D02*
D03*
X135236D02*
D03*
X137795D02*
D03*
X140354D02*
D03*
X142913D02*
D03*
X145472Y203986D02*
D03*
Y206545D02*
D03*
Y209104D02*
D03*
Y211663D02*
D03*
Y214222D02*
D03*
Y216781D02*
D03*
X142913Y216781D02*
D03*
X140354D02*
D03*
X137795D02*
D03*
X135236D02*
D03*
X132677D02*
D03*
X130118D02*
D03*
X127559Y216781D02*
D03*
Y214222D02*
D03*
Y211663D02*
D03*
Y209104D02*
D03*
Y206545D02*
D03*
X127559Y203986D02*
D03*
X127559Y201427D02*
D03*
X130118D02*
D03*
X132677D02*
D03*
X135236Y201427D02*
D03*
X137795Y201427D02*
D03*
X140354D02*
D03*
X142913Y201427D02*
D03*
X145472Y201427D02*
D03*
X148031D02*
D03*
X148031Y203986D02*
D03*
X148031Y206545D02*
D03*
Y209104D02*
D03*
Y211663D02*
D03*
X148031Y214222D02*
D03*
Y216781D02*
D03*
X148031Y219340D02*
D03*
X145472D02*
D03*
X142913D02*
D03*
X140354D02*
D03*
X137795D02*
D03*
X135236Y219340D02*
D03*
X132677Y219340D02*
D03*
X130118D02*
D03*
X127559D02*
D03*
X365158Y222589D02*
D03*
Y231644D02*
D03*
Y227116D02*
D03*
X343504Y227116D02*
D03*
Y231644D02*
D03*
Y222589D02*
D03*
X346654Y214222D02*
D03*
Y211663D02*
D03*
Y209104D02*
D03*
Y206545D02*
D03*
Y203986D02*
D03*
X349213D02*
D03*
X351772D02*
D03*
X354331D02*
D03*
X356890D02*
D03*
X359449D02*
D03*
X362008Y203986D02*
D03*
Y206545D02*
D03*
Y209104D02*
D03*
Y211663D02*
D03*
Y214222D02*
D03*
Y216781D02*
D03*
X359449Y216781D02*
D03*
X356890D02*
D03*
X354331D02*
D03*
X351772D02*
D03*
X349213D02*
D03*
X346654D02*
D03*
X344094Y216781D02*
D03*
Y214222D02*
D03*
Y211663D02*
D03*
Y209104D02*
D03*
Y206545D02*
D03*
X344094Y203986D02*
D03*
X344094Y201427D02*
D03*
X346654D02*
D03*
X349213D02*
D03*
X351772Y201427D02*
D03*
X354331Y201427D02*
D03*
X356890D02*
D03*
X359449Y201427D02*
D03*
X362008Y201427D02*
D03*
X364567D02*
D03*
X364567Y203986D02*
D03*
X364567Y206545D02*
D03*
Y209104D02*
D03*
Y211663D02*
D03*
X364567Y214222D02*
D03*
Y216781D02*
D03*
X364567Y219340D02*
D03*
X362008D02*
D03*
X359449D02*
D03*
X356890D02*
D03*
X354331D02*
D03*
X351772Y219340D02*
D03*
X349213Y219340D02*
D03*
X346654D02*
D03*
X344094D02*
D03*
X581693Y222589D02*
D03*
Y231644D02*
D03*
Y227116D02*
D03*
X560039Y227116D02*
D03*
Y231644D02*
D03*
Y222589D02*
D03*
X563189Y214222D02*
D03*
Y211663D02*
D03*
Y209104D02*
D03*
Y206545D02*
D03*
Y203986D02*
D03*
X565748D02*
D03*
X568307D02*
D03*
X570866D02*
D03*
X573425D02*
D03*
X575984D02*
D03*
X578543Y203986D02*
D03*
Y206545D02*
D03*
Y209104D02*
D03*
Y211663D02*
D03*
Y214222D02*
D03*
Y216781D02*
D03*
X575984Y216781D02*
D03*
X573425D02*
D03*
X570866D02*
D03*
X568307D02*
D03*
X565748D02*
D03*
X563189D02*
D03*
X560630Y216781D02*
D03*
Y214222D02*
D03*
Y211663D02*
D03*
Y209104D02*
D03*
Y206545D02*
D03*
X560630Y203986D02*
D03*
X560630Y201427D02*
D03*
X563189D02*
D03*
X565748D02*
D03*
X568307Y201427D02*
D03*
X570866Y201427D02*
D03*
X573425D02*
D03*
X575984Y201427D02*
D03*
X578543Y201427D02*
D03*
X581102D02*
D03*
X581102Y203986D02*
D03*
X581102Y206545D02*
D03*
Y209104D02*
D03*
Y211663D02*
D03*
X581102Y214222D02*
D03*
Y216781D02*
D03*
X581102Y219340D02*
D03*
X578543D02*
D03*
X575984D02*
D03*
X573425D02*
D03*
X570866D02*
D03*
X568307Y219340D02*
D03*
X565748Y219340D02*
D03*
X563189D02*
D03*
X560630D02*
D03*
X148622Y439124D02*
D03*
Y448179D02*
D03*
Y443652D02*
D03*
X126969Y443652D02*
D03*
Y448179D02*
D03*
Y439124D02*
D03*
X130118Y430758D02*
D03*
Y428199D02*
D03*
Y425640D02*
D03*
Y423081D02*
D03*
Y420522D02*
D03*
X132677D02*
D03*
X135236D02*
D03*
X137795D02*
D03*
X140354D02*
D03*
X142913D02*
D03*
X145472Y420522D02*
D03*
Y423081D02*
D03*
Y425640D02*
D03*
Y428199D02*
D03*
Y430758D02*
D03*
Y433317D02*
D03*
X142913Y433317D02*
D03*
X140354D02*
D03*
X137795D02*
D03*
X135236D02*
D03*
X132677D02*
D03*
X130118D02*
D03*
X127559Y433317D02*
D03*
Y430758D02*
D03*
Y428199D02*
D03*
Y425640D02*
D03*
Y423081D02*
D03*
X127559Y420522D02*
D03*
X127559Y417963D02*
D03*
X130118D02*
D03*
X132677D02*
D03*
X135236Y417963D02*
D03*
X137795Y417963D02*
D03*
X140354D02*
D03*
X142913Y417963D02*
D03*
X145472Y417963D02*
D03*
X148031D02*
D03*
X148031Y420522D02*
D03*
X148031Y423081D02*
D03*
Y425640D02*
D03*
Y428199D02*
D03*
X148031Y430758D02*
D03*
Y433317D02*
D03*
X148031Y435876D02*
D03*
X145472D02*
D03*
X142913D02*
D03*
X140354D02*
D03*
X137795D02*
D03*
X135236Y435876D02*
D03*
X132677Y435876D02*
D03*
X130118D02*
D03*
X127559D02*
D03*
X365158Y439124D02*
D03*
Y448179D02*
D03*
Y443652D02*
D03*
X343504Y443652D02*
D03*
Y448179D02*
D03*
Y439124D02*
D03*
X346654Y430758D02*
D03*
Y428199D02*
D03*
Y425640D02*
D03*
Y423081D02*
D03*
Y420522D02*
D03*
X349213D02*
D03*
X351772D02*
D03*
X354331D02*
D03*
X356890D02*
D03*
X359449D02*
D03*
X362008Y420522D02*
D03*
Y423081D02*
D03*
Y425640D02*
D03*
Y428199D02*
D03*
Y430758D02*
D03*
Y433317D02*
D03*
X359449Y433317D02*
D03*
X356890D02*
D03*
X354331D02*
D03*
X351772D02*
D03*
X349213D02*
D03*
X346654D02*
D03*
X344094Y433317D02*
D03*
Y430758D02*
D03*
Y428199D02*
D03*
Y425640D02*
D03*
Y423081D02*
D03*
X344094Y420522D02*
D03*
X344094Y417963D02*
D03*
X346654D02*
D03*
X349213D02*
D03*
X351772Y417963D02*
D03*
X354331Y417963D02*
D03*
X356890D02*
D03*
X359449Y417963D02*
D03*
X362008Y417963D02*
D03*
X364567D02*
D03*
X364567Y420522D02*
D03*
X364567Y423081D02*
D03*
Y425640D02*
D03*
Y428199D02*
D03*
X364567Y430758D02*
D03*
Y433317D02*
D03*
X364567Y435876D02*
D03*
X362008D02*
D03*
X359449D02*
D03*
X356890D02*
D03*
X354331D02*
D03*
X351772Y435876D02*
D03*
X349213Y435876D02*
D03*
X346654D02*
D03*
X344094D02*
D03*
X581693Y439124D02*
D03*
Y448179D02*
D03*
Y443652D02*
D03*
X560039Y443652D02*
D03*
Y448179D02*
D03*
Y439124D02*
D03*
X563189Y430758D02*
D03*
Y428199D02*
D03*
Y425640D02*
D03*
Y423081D02*
D03*
Y420522D02*
D03*
X565748D02*
D03*
X568307D02*
D03*
X570866D02*
D03*
X573425D02*
D03*
X575984D02*
D03*
X578543Y420522D02*
D03*
Y423081D02*
D03*
Y425640D02*
D03*
Y428199D02*
D03*
Y430758D02*
D03*
Y433317D02*
D03*
X575984Y433317D02*
D03*
X573425D02*
D03*
X570866D02*
D03*
X568307D02*
D03*
X565748D02*
D03*
X563189D02*
D03*
X560630Y433317D02*
D03*
Y430758D02*
D03*
Y428199D02*
D03*
Y425640D02*
D03*
Y423081D02*
D03*
X560630Y420522D02*
D03*
X560630Y417963D02*
D03*
X563189D02*
D03*
X565748D02*
D03*
X568307Y417963D02*
D03*
X570866Y417963D02*
D03*
X573425D02*
D03*
X575984Y417963D02*
D03*
X578543Y417963D02*
D03*
X581102D02*
D03*
X581102Y420522D02*
D03*
X581102Y423081D02*
D03*
Y425640D02*
D03*
Y428199D02*
D03*
X581102Y430758D02*
D03*
Y433317D02*
D03*
X581102Y435876D02*
D03*
X578543D02*
D03*
X575984D02*
D03*
X573425D02*
D03*
X570866D02*
D03*
X568307Y435876D02*
D03*
X565748Y435876D02*
D03*
X563189D02*
D03*
X560630D02*
D03*
D23*
X133858Y209203D02*
D03*
X350394D02*
D03*
X566929D02*
D03*
X133858Y425738D02*
D03*
X350394D02*
D03*
X566929D02*
D03*
D24*
X127953Y50394D02*
D03*
X147638D02*
D03*
X344488D02*
D03*
X364173D02*
D03*
X561024D02*
D03*
X580709D02*
D03*
X127953Y266929D02*
D03*
X147638D02*
D03*
X344488D02*
D03*
X364173D02*
D03*
X561024D02*
D03*
X580709D02*
D03*
D25*
X137795Y61614D02*
D03*
X354331D02*
D03*
X570866D02*
D03*
X137795Y278150D02*
D03*
X354331D02*
D03*
X570866D02*
D03*
D26*
X153543Y86614D02*
D03*
X370079D02*
D03*
X586614D02*
D03*
X153543Y303150D02*
D03*
X370079D02*
D03*
X586614D02*
D03*
D27*
X151575Y82677D02*
D03*
X155512D02*
D03*
X153543D02*
D03*
X151575Y90551D02*
D03*
X155512D02*
D03*
X153543D02*
D03*
X368110Y82677D02*
D03*
X372047D02*
D03*
X370079D02*
D03*
X368110Y90551D02*
D03*
X372047D02*
D03*
X370079D02*
D03*
X584646Y82677D02*
D03*
X588583D02*
D03*
X586614D02*
D03*
X584646Y90551D02*
D03*
X588583D02*
D03*
X586614D02*
D03*
X151575Y299213D02*
D03*
X155512D02*
D03*
X153543D02*
D03*
X151575Y307087D02*
D03*
X155512D02*
D03*
X153543D02*
D03*
X368110Y299213D02*
D03*
X372047D02*
D03*
X370079D02*
D03*
X368110Y307087D02*
D03*
X372047D02*
D03*
X370079D02*
D03*
X584646Y299213D02*
D03*
X588583D02*
D03*
X586614D02*
D03*
X584646Y307087D02*
D03*
X588583D02*
D03*
X586614D02*
D03*
D28*
X168061Y206693D02*
D03*
X170521D02*
D03*
X105069D02*
D03*
X107529D02*
D03*
Y68898D02*
D03*
X105069D02*
D03*
X168061D02*
D03*
X170521D02*
D03*
X384597Y206693D02*
D03*
X387057D02*
D03*
X321605D02*
D03*
X324065D02*
D03*
Y68898D02*
D03*
X321605D02*
D03*
X384597D02*
D03*
X387057D02*
D03*
X601132Y206693D02*
D03*
X603592D02*
D03*
X538140D02*
D03*
X540600D02*
D03*
Y68898D02*
D03*
X538140D02*
D03*
X601132D02*
D03*
X603592D02*
D03*
X168061Y423228D02*
D03*
X170521D02*
D03*
X105069D02*
D03*
X107529D02*
D03*
Y285433D02*
D03*
X105069D02*
D03*
X168061D02*
D03*
X170521D02*
D03*
X384597Y423228D02*
D03*
X387057D02*
D03*
X321605D02*
D03*
X324065D02*
D03*
Y285433D02*
D03*
X321605D02*
D03*
X384597D02*
D03*
X387057D02*
D03*
X601132Y423228D02*
D03*
X603592D02*
D03*
X538140D02*
D03*
X540600D02*
D03*
Y285433D02*
D03*
X538140D02*
D03*
X601132D02*
D03*
X603592D02*
D03*
D29*
X154331Y181102D02*
D03*
X158268D02*
D03*
X158268Y175197D02*
D03*
X154331D02*
D03*
X171260Y201575D02*
D03*
X167323D02*
D03*
X108268D02*
D03*
X104331D02*
D03*
X104331Y74016D02*
D03*
X108268D02*
D03*
X171260D02*
D03*
X167323D02*
D03*
X220472Y144488D02*
D03*
X224410D02*
D03*
X220472Y131102D02*
D03*
X224410D02*
D03*
X55118Y144488D02*
D03*
X51181D02*
D03*
X55118Y131102D02*
D03*
X51181D02*
D03*
X154331Y187008D02*
D03*
X158268D02*
D03*
X370866Y181102D02*
D03*
X374803D02*
D03*
X374803Y175197D02*
D03*
X370866D02*
D03*
X387795Y201575D02*
D03*
X383858D02*
D03*
X324803D02*
D03*
X320866D02*
D03*
X320866Y74016D02*
D03*
X324803D02*
D03*
X387795D02*
D03*
X383858D02*
D03*
X437008Y144488D02*
D03*
X440945D02*
D03*
X437008Y131102D02*
D03*
X440945D02*
D03*
X271654Y144488D02*
D03*
X267717D02*
D03*
X271654Y131102D02*
D03*
X267717D02*
D03*
X370866Y187008D02*
D03*
X374803D02*
D03*
X587402Y181102D02*
D03*
X591339D02*
D03*
X591339Y175197D02*
D03*
X587402D02*
D03*
X604331Y201575D02*
D03*
X600394D02*
D03*
X541339D02*
D03*
X537402D02*
D03*
X537402Y74016D02*
D03*
X541339D02*
D03*
X604331D02*
D03*
X600394D02*
D03*
X653543Y144488D02*
D03*
X657480D02*
D03*
X653543Y131102D02*
D03*
X657480D02*
D03*
X488189Y144488D02*
D03*
X484252D02*
D03*
X488189Y131102D02*
D03*
X484252D02*
D03*
X587402Y187008D02*
D03*
X591339D02*
D03*
X154331Y397638D02*
D03*
X158268D02*
D03*
X158268Y391732D02*
D03*
X154331D02*
D03*
X171260Y418110D02*
D03*
X167323D02*
D03*
X108268D02*
D03*
X104331D02*
D03*
X104331Y290551D02*
D03*
X108268D02*
D03*
X171260D02*
D03*
X167323D02*
D03*
X220472Y361024D02*
D03*
X224410D02*
D03*
X220472Y347638D02*
D03*
X224410D02*
D03*
X55118Y361024D02*
D03*
X51181D02*
D03*
X55118Y347638D02*
D03*
X51181D02*
D03*
X154331Y403543D02*
D03*
X158268D02*
D03*
X370866Y397638D02*
D03*
X374803D02*
D03*
X374803Y391732D02*
D03*
X370866D02*
D03*
X387795Y418110D02*
D03*
X383858D02*
D03*
X324803D02*
D03*
X320866D02*
D03*
X320866Y290551D02*
D03*
X324803D02*
D03*
X387795D02*
D03*
X383858D02*
D03*
X437008Y361024D02*
D03*
X440945D02*
D03*
X437008Y347638D02*
D03*
X440945D02*
D03*
X271654Y361024D02*
D03*
X267717D02*
D03*
X271654Y347638D02*
D03*
X267717D02*
D03*
X370866Y403543D02*
D03*
X374803D02*
D03*
X587402Y397638D02*
D03*
X591339D02*
D03*
X591339Y391732D02*
D03*
X587402D02*
D03*
X604331Y418110D02*
D03*
X600394D02*
D03*
X541339D02*
D03*
X537402D02*
D03*
X537402Y290551D02*
D03*
X541339D02*
D03*
X604331D02*
D03*
X600394D02*
D03*
X653543Y361024D02*
D03*
X657480D02*
D03*
X653543Y347638D02*
D03*
X657480D02*
D03*
X488189Y361024D02*
D03*
X484252D02*
D03*
X488189Y347638D02*
D03*
X484252D02*
D03*
X587402Y403543D02*
D03*
X591339D02*
D03*
D30*
X157480Y214567D02*
D03*
Y210630D02*
D03*
X118110Y214567D02*
D03*
Y210630D02*
D03*
Y205709D02*
D03*
Y201772D02*
D03*
X157480Y205709D02*
D03*
Y201772D02*
D03*
Y219291D02*
D03*
Y223228D02*
D03*
X374016Y214567D02*
D03*
Y210630D02*
D03*
X334646Y214567D02*
D03*
Y210630D02*
D03*
Y205709D02*
D03*
Y201772D02*
D03*
X374016Y205709D02*
D03*
Y201772D02*
D03*
Y219291D02*
D03*
Y223228D02*
D03*
X590551Y214567D02*
D03*
Y210630D02*
D03*
X551181Y214567D02*
D03*
Y210630D02*
D03*
Y205709D02*
D03*
Y201772D02*
D03*
X590551Y205709D02*
D03*
Y201772D02*
D03*
Y219291D02*
D03*
Y223228D02*
D03*
X157480Y431102D02*
D03*
Y427165D02*
D03*
X118110Y431102D02*
D03*
Y427165D02*
D03*
Y422244D02*
D03*
Y418307D02*
D03*
X157480Y422244D02*
D03*
Y418307D02*
D03*
Y435827D02*
D03*
Y439764D02*
D03*
X374016Y431102D02*
D03*
Y427165D02*
D03*
X334646Y431102D02*
D03*
Y427165D02*
D03*
Y422244D02*
D03*
Y418307D02*
D03*
X374016Y422244D02*
D03*
Y418307D02*
D03*
Y435827D02*
D03*
Y439764D02*
D03*
X590551Y431102D02*
D03*
Y427165D02*
D03*
X551181Y431102D02*
D03*
Y427165D02*
D03*
Y422244D02*
D03*
Y418307D02*
D03*
X590551Y422244D02*
D03*
Y418307D02*
D03*
Y435827D02*
D03*
Y439764D02*
D03*
D31*
X70866Y172047D02*
D03*
X74803D02*
D03*
X82677Y198819D02*
D03*
X86614D02*
D03*
X204724Y103543D02*
D03*
X200787D02*
D03*
X192913Y76772D02*
D03*
X188976D02*
D03*
X104331Y196850D02*
D03*
X108268D02*
D03*
X108268Y181102D02*
D03*
X104331D02*
D03*
X171260D02*
D03*
X167323D02*
D03*
X167323Y196850D02*
D03*
X171260D02*
D03*
X104331Y94488D02*
D03*
X108268D02*
D03*
X108268Y78740D02*
D03*
X104331D02*
D03*
X171260D02*
D03*
X167323D02*
D03*
X167323Y94488D02*
D03*
X171260D02*
D03*
X151575Y76772D02*
D03*
X155512D02*
D03*
X151575Y94882D02*
D03*
X155512D02*
D03*
X158268Y192913D02*
D03*
X154331D02*
D03*
X287402Y172047D02*
D03*
X291339D02*
D03*
X299213Y198819D02*
D03*
X303150D02*
D03*
X421260Y103543D02*
D03*
X417323D02*
D03*
X409449Y76772D02*
D03*
X405512D02*
D03*
X320866Y196850D02*
D03*
X324803D02*
D03*
X324803Y181102D02*
D03*
X320866D02*
D03*
X387795D02*
D03*
X383858D02*
D03*
X383858Y196850D02*
D03*
X387795D02*
D03*
X320866Y94488D02*
D03*
X324803D02*
D03*
X324803Y78740D02*
D03*
X320866D02*
D03*
X387795D02*
D03*
X383858D02*
D03*
X383858Y94488D02*
D03*
X387795D02*
D03*
X368110Y76772D02*
D03*
X372047D02*
D03*
X368110Y94882D02*
D03*
X372047D02*
D03*
X374803Y192913D02*
D03*
X370866D02*
D03*
X503937Y172047D02*
D03*
X507874D02*
D03*
X515748Y198819D02*
D03*
X519685D02*
D03*
X637795Y103543D02*
D03*
X633858D02*
D03*
X625984Y76772D02*
D03*
X622047D02*
D03*
X537402Y196850D02*
D03*
X541339D02*
D03*
X541339Y181102D02*
D03*
X537402D02*
D03*
X604331D02*
D03*
X600394D02*
D03*
X600394Y196850D02*
D03*
X604331D02*
D03*
X537402Y94488D02*
D03*
X541339D02*
D03*
X541339Y78740D02*
D03*
X537402D02*
D03*
X604331D02*
D03*
X600394D02*
D03*
X600394Y94488D02*
D03*
X604331D02*
D03*
X584646Y76772D02*
D03*
X588583D02*
D03*
X584646Y94882D02*
D03*
X588583D02*
D03*
X591339Y192913D02*
D03*
X587402D02*
D03*
X70866Y388583D02*
D03*
X74803D02*
D03*
X82677Y415354D02*
D03*
X86614D02*
D03*
X204724Y320079D02*
D03*
X200787D02*
D03*
X192913Y293307D02*
D03*
X188976D02*
D03*
X104331Y413386D02*
D03*
X108268D02*
D03*
X108268Y397638D02*
D03*
X104331D02*
D03*
X171260D02*
D03*
X167323D02*
D03*
X167323Y413386D02*
D03*
X171260D02*
D03*
X104331Y311024D02*
D03*
X108268D02*
D03*
X108268Y295276D02*
D03*
X104331D02*
D03*
X171260D02*
D03*
X167323D02*
D03*
X167323Y311024D02*
D03*
X171260D02*
D03*
X151575Y293307D02*
D03*
X155512D02*
D03*
X151575Y311417D02*
D03*
X155512D02*
D03*
X158268Y409449D02*
D03*
X154331D02*
D03*
X287402Y388583D02*
D03*
X291339D02*
D03*
X299213Y415354D02*
D03*
X303150D02*
D03*
X421260Y320079D02*
D03*
X417323D02*
D03*
X409449Y293307D02*
D03*
X405512D02*
D03*
X320866Y413386D02*
D03*
X324803D02*
D03*
X324803Y397638D02*
D03*
X320866D02*
D03*
X387795D02*
D03*
X383858D02*
D03*
X383858Y413386D02*
D03*
X387795D02*
D03*
X320866Y311024D02*
D03*
X324803D02*
D03*
X324803Y295276D02*
D03*
X320866D02*
D03*
X387795D02*
D03*
X383858D02*
D03*
X383858Y311024D02*
D03*
X387795D02*
D03*
X368110Y293307D02*
D03*
X372047D02*
D03*
X368110Y311417D02*
D03*
X372047D02*
D03*
X374803Y409449D02*
D03*
X370866D02*
D03*
X503937Y388583D02*
D03*
X507874D02*
D03*
X515748Y415354D02*
D03*
X519685D02*
D03*
X637795Y320079D02*
D03*
X633858D02*
D03*
X625984Y293307D02*
D03*
X622047D02*
D03*
X537402Y413386D02*
D03*
X541339D02*
D03*
X541339Y397638D02*
D03*
X537402D02*
D03*
X604331D02*
D03*
X600394D02*
D03*
X600394Y413386D02*
D03*
X604331D02*
D03*
X537402Y311024D02*
D03*
X541339D02*
D03*
X541339Y295276D02*
D03*
X537402D02*
D03*
X604331D02*
D03*
X600394D02*
D03*
X600394Y311024D02*
D03*
X604331D02*
D03*
X584646Y293307D02*
D03*
X588583D02*
D03*
X584646Y311417D02*
D03*
X588583D02*
D03*
X591339Y409449D02*
D03*
X587402D02*
D03*
D32*
X204724Y183071D02*
D03*
Y187008D02*
D03*
X177165Y183071D02*
D03*
Y187008D02*
D03*
X70866Y88583D02*
D03*
Y92520D02*
D03*
X98425Y92520D02*
D03*
Y88583D02*
D03*
X231102Y153543D02*
D03*
Y157480D02*
D03*
X44488Y153543D02*
D03*
Y157480D02*
D03*
X231102Y118110D02*
D03*
Y122047D02*
D03*
X44488Y122047D02*
D03*
Y118110D02*
D03*
X118110Y223228D02*
D03*
Y219291D02*
D03*
X421260Y183071D02*
D03*
Y187008D02*
D03*
X393701Y183071D02*
D03*
Y187008D02*
D03*
X287402Y88583D02*
D03*
Y92520D02*
D03*
X314961Y92520D02*
D03*
Y88583D02*
D03*
X447638Y153543D02*
D03*
Y157480D02*
D03*
X261024Y153543D02*
D03*
Y157480D02*
D03*
X447638Y118110D02*
D03*
Y122047D02*
D03*
X261024Y122047D02*
D03*
Y118110D02*
D03*
X334646Y223228D02*
D03*
Y219291D02*
D03*
X637795Y183071D02*
D03*
Y187008D02*
D03*
X610236Y183071D02*
D03*
Y187008D02*
D03*
X503937Y88583D02*
D03*
Y92520D02*
D03*
X531496Y92520D02*
D03*
Y88583D02*
D03*
X664173Y153543D02*
D03*
Y157480D02*
D03*
X477559Y153543D02*
D03*
Y157480D02*
D03*
X664173Y118110D02*
D03*
Y122047D02*
D03*
X477559Y122047D02*
D03*
Y118110D02*
D03*
X551181Y223228D02*
D03*
Y219291D02*
D03*
X204724Y399606D02*
D03*
Y403543D02*
D03*
X177165Y399606D02*
D03*
Y403543D02*
D03*
X70866Y305118D02*
D03*
Y309055D02*
D03*
X98425Y309055D02*
D03*
Y305118D02*
D03*
X231102Y370079D02*
D03*
Y374016D02*
D03*
X44488Y370079D02*
D03*
Y374016D02*
D03*
X231102Y334646D02*
D03*
Y338583D02*
D03*
X44488Y338583D02*
D03*
Y334646D02*
D03*
X118110Y439764D02*
D03*
Y435827D02*
D03*
X421260Y399606D02*
D03*
Y403543D02*
D03*
X393701Y399606D02*
D03*
Y403543D02*
D03*
X287402Y305118D02*
D03*
Y309055D02*
D03*
X314961Y309055D02*
D03*
Y305118D02*
D03*
X447638Y370079D02*
D03*
Y374016D02*
D03*
X261024Y370079D02*
D03*
Y374016D02*
D03*
X447638Y334646D02*
D03*
Y338583D02*
D03*
X261024Y338583D02*
D03*
Y334646D02*
D03*
X334646Y439764D02*
D03*
Y435827D02*
D03*
X637795Y399606D02*
D03*
Y403543D02*
D03*
X610236Y399606D02*
D03*
Y403543D02*
D03*
X503937Y305118D02*
D03*
Y309055D02*
D03*
X531496Y309055D02*
D03*
Y305118D02*
D03*
X664173Y370079D02*
D03*
Y374016D02*
D03*
X477559Y370079D02*
D03*
Y374016D02*
D03*
X664173Y334646D02*
D03*
Y338583D02*
D03*
X477559Y338583D02*
D03*
Y334646D02*
D03*
X551181Y439764D02*
D03*
Y435827D02*
D03*
D33*
X93799Y212598D02*
D03*
X99114D02*
D03*
X176476D02*
D03*
X181791D02*
D03*
Y62992D02*
D03*
X176476D02*
D03*
X99114D02*
D03*
X93799D02*
D03*
X310335Y212598D02*
D03*
X315650D02*
D03*
X393012D02*
D03*
X398327D02*
D03*
Y62992D02*
D03*
X393012D02*
D03*
X315650D02*
D03*
X310335D02*
D03*
X526870Y212598D02*
D03*
X532185D02*
D03*
X609547D02*
D03*
X614862D02*
D03*
Y62992D02*
D03*
X609547D02*
D03*
X532185D02*
D03*
X526870D02*
D03*
X93799Y429134D02*
D03*
X99114D02*
D03*
X176476D02*
D03*
X181791D02*
D03*
Y279528D02*
D03*
X176476D02*
D03*
X99114D02*
D03*
X93799D02*
D03*
X310335Y429134D02*
D03*
X315650D02*
D03*
X393012D02*
D03*
X398327D02*
D03*
Y279528D02*
D03*
X393012D02*
D03*
X315650D02*
D03*
X310335D02*
D03*
X526870Y429134D02*
D03*
X532185D02*
D03*
X609547D02*
D03*
X614862D02*
D03*
Y279528D02*
D03*
X609547D02*
D03*
X532185D02*
D03*
X526870D02*
D03*
D34*
X55512Y91738D02*
D03*
Y97238D02*
D03*
X220079Y183852D02*
D03*
Y178352D02*
D03*
X55512D02*
D03*
Y183852D02*
D03*
X220079Y91738D02*
D03*
Y97238D02*
D03*
X272047Y91738D02*
D03*
Y97238D02*
D03*
X436614Y183852D02*
D03*
Y178352D02*
D03*
X272047D02*
D03*
Y183852D02*
D03*
X436614Y91738D02*
D03*
Y97238D02*
D03*
X488583Y91738D02*
D03*
Y97238D02*
D03*
X653150Y183852D02*
D03*
Y178352D02*
D03*
X488583D02*
D03*
Y183852D02*
D03*
X653150Y91738D02*
D03*
Y97238D02*
D03*
X55512Y308274D02*
D03*
Y313774D02*
D03*
X220079Y400388D02*
D03*
Y394888D02*
D03*
X55512D02*
D03*
Y400388D02*
D03*
X220079Y308274D02*
D03*
Y313774D02*
D03*
X272047Y308274D02*
D03*
Y313774D02*
D03*
X436614Y400388D02*
D03*
Y394888D02*
D03*
X272047D02*
D03*
Y400388D02*
D03*
X436614Y308274D02*
D03*
Y313774D02*
D03*
X488583Y308274D02*
D03*
Y313774D02*
D03*
X653150Y400388D02*
D03*
Y394888D02*
D03*
X488583D02*
D03*
Y400388D02*
D03*
X653150Y308274D02*
D03*
Y313774D02*
D03*
D35*
X113091Y175295D02*
D03*
Y191634D02*
D03*
X121555Y175295D02*
D03*
Y191634D02*
D03*
X329626Y175295D02*
D03*
Y191634D02*
D03*
X338091Y175295D02*
D03*
Y191634D02*
D03*
X546161Y175295D02*
D03*
Y191634D02*
D03*
X554626Y175295D02*
D03*
Y191634D02*
D03*
X113091Y391831D02*
D03*
Y408169D02*
D03*
X121555Y391831D02*
D03*
Y408169D02*
D03*
X329626Y391831D02*
D03*
Y408169D02*
D03*
X338091Y391831D02*
D03*
Y408169D02*
D03*
X546161Y391831D02*
D03*
Y408169D02*
D03*
X554626Y391831D02*
D03*
Y408169D02*
D03*
D36*
X202060Y207071D02*
D03*
X207071Y202060D02*
D03*
X73531Y68520D02*
D03*
X68520Y73531D02*
D03*
X418595Y207071D02*
D03*
X423606Y202060D02*
D03*
X290066Y68520D02*
D03*
X285055Y73531D02*
D03*
X635131Y207071D02*
D03*
X640142Y202060D02*
D03*
X506601Y68520D02*
D03*
X501590Y73531D02*
D03*
X202060Y423606D02*
D03*
X207071Y418595D02*
D03*
X73531Y285055D02*
D03*
X68520Y290066D02*
D03*
X418595Y423606D02*
D03*
X423606Y418595D02*
D03*
X290066Y285055D02*
D03*
X285055Y290066D02*
D03*
X635131Y423606D02*
D03*
X640142Y418595D02*
D03*
X506601Y285055D02*
D03*
X501590Y290066D02*
D03*
D37*
X195281Y211623D02*
D03*
X211623Y195281D02*
D03*
X80309Y63968D02*
D03*
X63968Y80309D02*
D03*
X411817Y211623D02*
D03*
X428158Y195281D02*
D03*
X296845Y63968D02*
D03*
X280503Y80309D02*
D03*
X628352Y211623D02*
D03*
X644694Y195281D02*
D03*
X513380Y63968D02*
D03*
X497039Y80309D02*
D03*
X195281Y428158D02*
D03*
X211623Y411817D02*
D03*
X80309Y280503D02*
D03*
X63968Y296845D02*
D03*
X411817Y428158D02*
D03*
X428158Y411817D02*
D03*
X296845Y280503D02*
D03*
X280503Y296845D02*
D03*
X628352Y428158D02*
D03*
X644694Y411817D02*
D03*
X513380Y280503D02*
D03*
X497039Y296845D02*
D03*
D38*
X68520Y202060D02*
D03*
X73531Y207071D02*
D03*
X207071Y73531D02*
D03*
X202060Y68520D02*
D03*
X285055Y202060D02*
D03*
X290066Y207071D02*
D03*
X423606Y73531D02*
D03*
X418595Y68520D02*
D03*
X501590Y202060D02*
D03*
X506601Y207071D02*
D03*
X640142Y73531D02*
D03*
X635131Y68520D02*
D03*
X68520Y418595D02*
D03*
X73531Y423606D02*
D03*
X207071Y290066D02*
D03*
X202060Y285055D02*
D03*
X285055Y418595D02*
D03*
X290066Y423606D02*
D03*
X423606Y290066D02*
D03*
X418595Y285055D02*
D03*
X501590Y418595D02*
D03*
X506601Y423606D02*
D03*
X640142Y290066D02*
D03*
X635131Y285055D02*
D03*
D39*
X63968Y195281D02*
D03*
X80309Y211623D02*
D03*
X211623Y80309D02*
D03*
X195281Y63968D02*
D03*
X280503Y195281D02*
D03*
X296845Y211623D02*
D03*
X428158Y80309D02*
D03*
X411817Y63968D02*
D03*
X497039Y195281D02*
D03*
X513380Y211623D02*
D03*
X644694Y80309D02*
D03*
X628352Y63968D02*
D03*
X63968Y411817D02*
D03*
X80309Y428158D02*
D03*
X211623Y296845D02*
D03*
X195281Y280503D02*
D03*
X280503Y411817D02*
D03*
X296845Y428158D02*
D03*
X428158Y296845D02*
D03*
X411817Y280503D02*
D03*
X497039Y411817D02*
D03*
X513380Y428158D02*
D03*
X644694Y296845D02*
D03*
X628352Y280503D02*
D03*
D46*
X80709Y137795D02*
D03*
X297244D02*
D03*
X513779D02*
D03*
X80709Y354331D02*
D03*
X297244D02*
D03*
X513779D02*
D03*
D47*
X199179Y202714D02*
D03*
X195643Y206250D02*
D03*
X206250Y195643D02*
D03*
X202714Y199179D02*
D03*
X72876D02*
D03*
X69341Y195643D02*
D03*
X79948Y206250D02*
D03*
X76412Y202714D02*
D03*
X202714Y76412D02*
D03*
X206250Y79948D02*
D03*
X195643Y69341D02*
D03*
X199179Y72876D02*
D03*
X76412D02*
D03*
X79948Y69341D02*
D03*
X69341Y79948D02*
D03*
X72876Y76412D02*
D03*
X415714Y202714D02*
D03*
X412179Y206250D02*
D03*
X422785Y195643D02*
D03*
X419250Y199179D02*
D03*
X289412D02*
D03*
X285876Y195643D02*
D03*
X296483Y206250D02*
D03*
X292947Y202714D02*
D03*
X419250Y76412D02*
D03*
X422785Y79948D02*
D03*
X412179Y69341D02*
D03*
X415714Y72876D02*
D03*
X292947D02*
D03*
X296483Y69341D02*
D03*
X285876Y79948D02*
D03*
X289412Y76412D02*
D03*
X632249Y202714D02*
D03*
X628714Y206250D02*
D03*
X639321Y195643D02*
D03*
X635785Y199179D02*
D03*
X505947D02*
D03*
X502412Y195643D02*
D03*
X513018Y206250D02*
D03*
X509483Y202714D02*
D03*
X635785Y76412D02*
D03*
X639321Y79948D02*
D03*
X628714Y69341D02*
D03*
X632249Y72876D02*
D03*
X509483D02*
D03*
X513018Y69341D02*
D03*
X502412Y79948D02*
D03*
X505947Y76412D02*
D03*
X199179Y419250D02*
D03*
X195643Y422785D02*
D03*
X206250Y412179D02*
D03*
X202714Y415714D02*
D03*
X72876D02*
D03*
X69341Y412179D02*
D03*
X79948Y422785D02*
D03*
X76412Y419250D02*
D03*
X202714Y292947D02*
D03*
X206250Y296483D02*
D03*
X195643Y285876D02*
D03*
X199179Y289412D02*
D03*
X76412D02*
D03*
X79948Y285876D02*
D03*
X69341Y296483D02*
D03*
X72876Y292947D02*
D03*
X415714Y419250D02*
D03*
X412179Y422785D02*
D03*
X422785Y412179D02*
D03*
X419250Y415714D02*
D03*
X289412D02*
D03*
X285876Y412179D02*
D03*
X296483Y422785D02*
D03*
X292947Y419250D02*
D03*
X419250Y292947D02*
D03*
X422785Y296483D02*
D03*
X412179Y285876D02*
D03*
X415714Y289412D02*
D03*
X292947D02*
D03*
X296483Y285876D02*
D03*
X285876Y296483D02*
D03*
X289412Y292947D02*
D03*
X632249Y419250D02*
D03*
X628714Y422785D02*
D03*
X639321Y412179D02*
D03*
X635785Y415714D02*
D03*
X505947D02*
D03*
X502412Y412179D02*
D03*
X513018Y422785D02*
D03*
X509483Y419250D02*
D03*
X635785Y292947D02*
D03*
X639321Y296483D02*
D03*
X628714Y285876D02*
D03*
X632249Y289412D02*
D03*
X509483D02*
D03*
X513018Y285876D02*
D03*
X502412Y296483D02*
D03*
X505947Y292947D02*
D03*
D48*
X137795Y137795D02*
D03*
X125984Y82677D02*
D03*
X137996Y87358D02*
D03*
X137795Y74803D02*
D03*
X354331Y137795D02*
D03*
X342520Y82677D02*
D03*
X354532Y87358D02*
D03*
X354331Y74803D02*
D03*
X570866Y137795D02*
D03*
X559055Y82677D02*
D03*
X571067Y87358D02*
D03*
X570866Y74803D02*
D03*
X137795Y354331D02*
D03*
X125984Y299213D02*
D03*
X137996Y303894D02*
D03*
X137795Y291339D02*
D03*
X354331Y354331D02*
D03*
X342520Y299213D02*
D03*
X354532Y303894D02*
D03*
X354331Y291339D02*
D03*
X570866Y354331D02*
D03*
X559055Y299213D02*
D03*
X571067Y303894D02*
D03*
X570866Y291339D02*
D03*
M02*
