G04*
G04 #@! TF.GenerationSoftware,Altium Limited,Altium Designer,22.3.1 (43)*
G04*
G04 Layer_Color=16711935*
%FSLAX25Y25*%
%MOIN*%
G70*
G04*
G04 #@! TF.SameCoordinates,BE9F1A3D-2FD5-4231-B36C-A3B311DF6078*
G04*
G04*
G04 #@! TF.FilePolarity,Negative*
G04*
G01*
G75*
%ADD62R,0.08268X0.08268*%
%ADD84C,0.00394*%
G04:AMPARAMS|DCode=85|XSize=3.94mil|YSize=3.94mil|CornerRadius=0mil|HoleSize=0mil|Usage=FLASHONLY|Rotation=180.000|XOffset=0mil|YOffset=0mil|HoleType=Round|Shape=RoundedRectangle|*
%AMROUNDEDRECTD85*
21,1,0.00394,0.00394,0,0,180.0*
21,1,0.00394,0.00394,0,0,180.0*
1,1,0.00000,-0.00197,0.00197*
1,1,0.00000,0.00197,0.00197*
1,1,0.00000,0.00197,-0.00197*
1,1,0.00000,-0.00197,-0.00197*
%
%ADD85ROUNDEDRECTD85*%
%ADD86C,0.08268*%
%ADD87C,0.04331*%
%ADD88C,0.02559*%
D62*
X194882Y137795D02*
D03*
X411417D02*
D03*
X627953D02*
D03*
X194882Y354331D02*
D03*
X411417D02*
D03*
X627953D02*
D03*
D84*
X124409Y56102D02*
D03*
X151181D02*
D03*
X168307Y137795D02*
D03*
X107283D02*
D03*
X194882Y109843D02*
D03*
X340945Y56102D02*
D03*
X367717D02*
D03*
X384842Y137795D02*
D03*
X323819D02*
D03*
X411417Y109843D02*
D03*
X557480Y56102D02*
D03*
X584252D02*
D03*
X601378Y137795D02*
D03*
X540354D02*
D03*
X627953Y109843D02*
D03*
X124409Y272638D02*
D03*
X151181D02*
D03*
X168307Y354331D02*
D03*
X107283D02*
D03*
X194882Y326378D02*
D03*
X340945Y272638D02*
D03*
X367717D02*
D03*
X384842Y354331D02*
D03*
X323819D02*
D03*
X411417Y326378D02*
D03*
X557480Y272638D02*
D03*
X584252D02*
D03*
X601378Y354331D02*
D03*
X540354D02*
D03*
X627953Y326378D02*
D03*
D85*
X179134Y171260D02*
D03*
X96457Y104331D02*
D03*
X179134D02*
D03*
X96457Y171260D02*
D03*
X395669D02*
D03*
X312992Y104331D02*
D03*
X395669D02*
D03*
X312992Y171260D02*
D03*
X612205D02*
D03*
X529528Y104331D02*
D03*
X612205D02*
D03*
X529528Y171260D02*
D03*
X179134Y387795D02*
D03*
X96457Y320866D02*
D03*
X179134D02*
D03*
X96457Y387795D02*
D03*
X395669D02*
D03*
X312992Y320866D02*
D03*
X395669D02*
D03*
X312992Y387795D02*
D03*
X612205D02*
D03*
X529528Y320866D02*
D03*
X612205D02*
D03*
X529528Y387795D02*
D03*
D86*
X80709Y137795D02*
D03*
X297244D02*
D03*
X513779D02*
D03*
X80709Y354331D02*
D03*
X297244D02*
D03*
X513779D02*
D03*
D87*
X199179Y202714D02*
D03*
X195643Y206250D02*
D03*
X206250Y195643D02*
D03*
X202714Y199179D02*
D03*
X72876D02*
D03*
X69341Y195643D02*
D03*
X79948Y206250D02*
D03*
X76412Y202714D02*
D03*
X202714Y76412D02*
D03*
X206250Y79948D02*
D03*
X195643Y69341D02*
D03*
X199179Y72876D02*
D03*
X76412D02*
D03*
X79948Y69341D02*
D03*
X69341Y79948D02*
D03*
X72876Y76412D02*
D03*
X415714Y202714D02*
D03*
X412179Y206250D02*
D03*
X422785Y195643D02*
D03*
X419250Y199179D02*
D03*
X289412D02*
D03*
X285876Y195643D02*
D03*
X296483Y206250D02*
D03*
X292947Y202714D02*
D03*
X419250Y76412D02*
D03*
X422785Y79948D02*
D03*
X412179Y69341D02*
D03*
X415714Y72876D02*
D03*
X292947D02*
D03*
X296483Y69341D02*
D03*
X285876Y79948D02*
D03*
X289412Y76412D02*
D03*
X632249Y202714D02*
D03*
X628714Y206250D02*
D03*
X639321Y195643D02*
D03*
X635785Y199179D02*
D03*
X505947D02*
D03*
X502412Y195643D02*
D03*
X513018Y206250D02*
D03*
X509483Y202714D02*
D03*
X635785Y76412D02*
D03*
X639321Y79948D02*
D03*
X628714Y69341D02*
D03*
X632249Y72876D02*
D03*
X509483D02*
D03*
X513018Y69341D02*
D03*
X502412Y79948D02*
D03*
X505947Y76412D02*
D03*
X199179Y419250D02*
D03*
X195643Y422785D02*
D03*
X206250Y412179D02*
D03*
X202714Y415714D02*
D03*
X72876D02*
D03*
X69341Y412179D02*
D03*
X79948Y422785D02*
D03*
X76412Y419250D02*
D03*
X202714Y292947D02*
D03*
X206250Y296483D02*
D03*
X195643Y285876D02*
D03*
X199179Y289412D02*
D03*
X76412D02*
D03*
X79948Y285876D02*
D03*
X69341Y296483D02*
D03*
X72876Y292947D02*
D03*
X415714Y419250D02*
D03*
X412179Y422785D02*
D03*
X422785Y412179D02*
D03*
X419250Y415714D02*
D03*
X289412D02*
D03*
X285876Y412179D02*
D03*
X296483Y422785D02*
D03*
X292947Y419250D02*
D03*
X419250Y292947D02*
D03*
X422785Y296483D02*
D03*
X412179Y285876D02*
D03*
X415714Y289412D02*
D03*
X292947D02*
D03*
X296483Y285876D02*
D03*
X285876Y296483D02*
D03*
X289412Y292947D02*
D03*
X632249Y419250D02*
D03*
X628714Y422785D02*
D03*
X639321Y412179D02*
D03*
X635785Y415714D02*
D03*
X505947D02*
D03*
X502412Y412179D02*
D03*
X513018Y422785D02*
D03*
X509483Y419250D02*
D03*
X635785Y292947D02*
D03*
X639321Y296483D02*
D03*
X628714Y285876D02*
D03*
X632249Y289412D02*
D03*
X509483D02*
D03*
X513018Y285876D02*
D03*
X502412Y296483D02*
D03*
X505947Y292947D02*
D03*
D88*
X137795Y137795D02*
D03*
X125984Y82677D02*
D03*
X137996Y87358D02*
D03*
X137795Y74803D02*
D03*
X354331Y137795D02*
D03*
X342520Y82677D02*
D03*
X354532Y87358D02*
D03*
X354331Y74803D02*
D03*
X570866Y137795D02*
D03*
X559055Y82677D02*
D03*
X571067Y87358D02*
D03*
X570866Y74803D02*
D03*
X137795Y354331D02*
D03*
X125984Y299213D02*
D03*
X137996Y303894D02*
D03*
X137795Y291339D02*
D03*
X354331Y354331D02*
D03*
X342520Y299213D02*
D03*
X354532Y303894D02*
D03*
X354331Y291339D02*
D03*
X570866Y354331D02*
D03*
X559055Y299213D02*
D03*
X571067Y303894D02*
D03*
X570866Y291339D02*
D03*
M02*
